<mxfile host="app.diagrams.net" agent="Mozilla/5.0 (Windows NT 10.0; Win64; x64) AppleWebKit/537.36 (KHTML, like Gecko) Chrome/140.0.0.0 Safari/537.36" version="28.2.4">
  <diagram name="Página-1" id="4iUnGPk8eX9eYoRPvFoH">
    <mxGraphModel dx="1426" dy="777" grid="1" gridSize="10" guides="1" tooltips="1" connect="1" arrows="1" fold="1" page="1" pageScale="1" pageWidth="827" pageHeight="1169" math="0" shadow="0">
      <root>
        <mxCell id="0" />
        <mxCell id="1" parent="0" />
        <mxCell id="iD5cl9piEalMS1e9P42m-3" value="" style="edgeStyle=orthogonalEdgeStyle;rounded=0;orthogonalLoop=1;jettySize=auto;html=1;" parent="1" source="iD5cl9piEalMS1e9P42m-1" target="iD5cl9piEalMS1e9P42m-2" edge="1">
          <mxGeometry relative="1" as="geometry" />
        </mxCell>
        <mxCell id="iD5cl9piEalMS1e9P42m-1" value="Inicio" style="ellipse;whiteSpace=wrap;html=1;fillColor=#6a00ff;strokeColor=#3700CC;fontColor=#ffffff;" parent="1" vertex="1">
          <mxGeometry x="354" y="60" width="119" height="90" as="geometry" />
        </mxCell>
        <mxCell id="dbXYkPXYevpdWX7WdQCM-2" value="" style="edgeStyle=orthogonalEdgeStyle;rounded=0;orthogonalLoop=1;jettySize=auto;html=1;" edge="1" parent="1" source="iD5cl9piEalMS1e9P42m-2" target="dbXYkPXYevpdWX7WdQCM-1">
          <mxGeometry relative="1" as="geometry" />
        </mxCell>
        <mxCell id="iD5cl9piEalMS1e9P42m-2" value="Pedir P1, P2, P3, P4" style="shape=parallelogram;perimeter=parallelogramPerimeter;whiteSpace=wrap;html=1;fixedSize=1;fillColor=#1ba1e2;fontColor=#ffffff;strokeColor=#006EAF;" parent="1" vertex="1">
          <mxGeometry x="284" y="180" width="260" height="60" as="geometry" />
        </mxCell>
        <mxCell id="dbXYkPXYevpdWX7WdQCM-4" value="" style="edgeStyle=orthogonalEdgeStyle;rounded=0;orthogonalLoop=1;jettySize=auto;html=1;" edge="1" parent="1" source="dbXYkPXYevpdWX7WdQCM-1" target="dbXYkPXYevpdWX7WdQCM-3">
          <mxGeometry relative="1" as="geometry" />
        </mxCell>
        <mxCell id="dbXYkPXYevpdWX7WdQCM-1" value="MÉDIA = (P1+P2+P3+P4)/4" style="whiteSpace=wrap;html=1;fillColor=#008a00;fontColor=#ffffff;strokeColor=#005700;" vertex="1" parent="1">
          <mxGeometry x="331" y="280" width="166" height="80" as="geometry" />
        </mxCell>
        <mxCell id="dbXYkPXYevpdWX7WdQCM-6" value="" style="edgeStyle=orthogonalEdgeStyle;rounded=0;orthogonalLoop=1;jettySize=auto;html=1;" edge="1" parent="1" source="dbXYkPXYevpdWX7WdQCM-3" target="dbXYkPXYevpdWX7WdQCM-5">
          <mxGeometry relative="1" as="geometry" />
        </mxCell>
        <mxCell id="dbXYkPXYevpdWX7WdQCM-3" value="Escrever MÉDIA" style="shape=parallelogram;perimeter=parallelogramPerimeter;whiteSpace=wrap;html=1;fixedSize=1;fillColor=#1ba1e2;fontColor=#ffffff;strokeColor=#006EAF;" vertex="1" parent="1">
          <mxGeometry x="284" y="400" width="260" height="60" as="geometry" />
        </mxCell>
        <mxCell id="dbXYkPXYevpdWX7WdQCM-5" value="Fim" style="ellipse;whiteSpace=wrap;html=1;fillColor=#6a00ff;fontColor=#ffffff;strokeColor=#3700CC;" vertex="1" parent="1">
          <mxGeometry x="354" y="495" width="119" height="90" as="geometry" />
        </mxCell>
      </root>
    </mxGraphModel>
  </diagram>
</mxfile>
